<svg xmlns="http://www.w3.org/2000/svg" width="393.931" height="350.489" viewBox="0 0 393.931 350.489"><path d="M587.711,294.485c-25.382,0-44.989-7.288-58.509-21.8C522.485,266.079,517.04,257.4,511.775,249c-8.026-12.8-15.606-24.885-27.138-29.586l-.3-.152c-12.2-7.85-30.64-5.514-50.175-3.04-8.033,1.019-16.339,2.071-24.2,2.354-15.965.617-31.91-.307-40.422-11.258-7.233-9.3-7.709-24.1-1.449-45.227,12.86-53.536,80.142-111.9,130.93-113.557,41.895-4.355,66.031,13.585,89.358,30.929,6.247,4.643,12.149,9.031,18.354,12.959l.152.107c2.4,1.894,4.968,3.876,7.658,5.951,25.707,19.828,64.556,49.792,72.26,95.568,5.385,24.192.586,48.782-13.185,67.366C660.594,279,641.179,289.628,618.94,291.358a171.973,171.973,0,0,1-31.23,3.127M486.162,216.12c12.526,5.186,20.741,18.285,28.685,30.952,5.155,8.22,10.487,16.719,16.952,23.088,17.8,19.094,46.9,25,86.576,17.614l.192-.025c21.212-1.625,39.729-11.744,52.139-28.495,13.145-17.739,17.717-41.253,12.541-64.511-7.484-44.467-44.146-72.744-70.914-93.39-2.675-2.064-5.227-4.034-7.618-5.917-6.289-3.987-12.22-8.4-18.5-13.063-22.77-16.93-46.337-34.433-86.948-30.223-48.639,1.594-115.384,59.6-127.66,110.835l-.025.093c-5.835,19.672-5.557,33.807.822,42.015,7.507,9.658,22.415,10.442,37.422,9.858,7.7-.276,15.927-1.319,23.88-2.327,20.129-2.552,39.15-4.963,52.451,3.5" transform="translate(-226.933 -180.644) rotate(22)" fill="#fff"/></svg>