<svg xmlns="http://www.w3.org/2000/svg" xmlns:xlink="http://www.w3.org/1999/xlink" width="168.211" height="168.204" viewBox="0 0 168.211 168.204"><defs><clipPath id="a"><rect width="168.211" height="168.204" fill="none"/></clipPath></defs><g transform="translate(0 0)"><g transform="translate(0 0)" clip-path="url(#a)"><path d="M17.985,168.2a7.039,7.039,0,0,1-7.041-7.041V7.041a7.041,7.041,0,1,1,14.083,0V161.163a7.039,7.039,0,0,1-7.041,7.041" transform="translate(66.117 -0.001)" fill="#fff"/><path d="M161.17,25.027H7.041a7.041,7.041,0,1,1,0-14.083H161.17a7.041,7.041,0,1,1,0,14.083" transform="translate(0 66.115)" fill="#fff"/><path d="M12.517,96.6a7.041,7.041,0,0,1-4.978-12.02l77.04-77.04A7.04,7.04,0,0,1,94.535,17.5L17.5,94.535A7.022,7.022,0,0,1,12.517,96.6" transform="translate(33.069 33.068)" fill="#fff"/><path d="M89.556,96.6a7.022,7.022,0,0,1-4.978-2.063L7.539,17.5A7.04,7.04,0,0,1,17.5,7.539l77.04,77.04A7.041,7.041,0,0,1,89.556,96.6" transform="translate(33.069 33.068)" fill="#fff"/></g></g></svg>