<svg xmlns="http://www.w3.org/2000/svg" xmlns:xlink="http://www.w3.org/1999/xlink" width="475.972" height="346.653" viewBox="0 0 475.972 346.653"><defs><clipPath id="a"><rect width="475.972" height="346.653" fill="none"/></clipPath></defs><g clip-path="url(#a)"><path d="M158.681,167.235s-32.736-19.965-34.293-40.006,23.09-27.213,28.019-36.623,1.158-26.348,6.4-32,22.161-3.393,28.491-13.257,11.708-29.583,28.289-37.2S250.545-2.154,264.437,4.12s38.209,19.96,39.046,42.916-8.573,84.8,6.663,94.209-72.6,64.08-151.465,25.99" transform="translate(86.778 0.439)"/><path d="M218.949,184.8c-22.546,0-46.844-4.744-69.524-17.507a1.318,1.318,0,0,1-.141-.088c-1.313-.917-32.139-22.711-32.448-43.441-.211-14.15,11.156-21.5,20.286-27.406,4.386-2.836,8.531-5.517,10.215-8.3,2.488-4.1,3.192-10.144,3.873-15.992.766-6.551,1.486-12.74,4.8-15.89,2.732-2.595,7.388-3.355,12.316-4.16,6.463-1.058,13.144-2.15,16.751-7.064a95.927,95.927,0,0,0,5.266-8.538c5.69-9.925,12.771-22.276,26.053-27.4,19.144-7.381,37.518-7.707,50.408-.885,24.784,13.119,37.642,29.31,37.185,46.822-.165,6.284-1.234,15.133-2.472,25.377-3.094,25.6-7.332,60.666,2.51,67.631,2.652,1.876,2.99,4.963.908,8.254-7.487,11.827-43.638,28.581-85.99,28.581m-67.784-20.424c35.608,20,72.075,18.892,96.4,14.426,27.3-5.006,49.544-16.564,54.5-24.4,1.6-2.532.521-3.3,0-3.666-11.492-8.135-7.293-42.887-3.919-70.81C299.376,69.77,300.438,61,300.6,54.869c.535-20.383-18.943-35.03-35.379-43.731-12.022-6.363-29.367-5.977-47.6,1.053-12.154,4.688-18.9,16.459-24.326,25.917a98.306,98.306,0,0,1-5.478,8.86c-4.425,6.031-12.136,7.291-18.936,8.4-4.4.72-8.555,1.4-10.528,3.272-2.425,2.3-3.077,7.9-3.768,13.822-.723,6.208-1.474,12.627-4.342,17.359-2.09,3.447-6.347,6.2-11.277,9.387-8.865,5.734-18.918,12.236-18.734,24.5.275,18.575,29.354,39.54,30.933,40.663" transform="translate(81.554 2.264)" fill="#080717"/><path d="M80.074,172.357l-.589-56.027a31.981,31.981,0,0,1-11.222-13.545c-4.316-9.845-7.988-18.442-7.879-18.942L30.97,50.222c-2.442-2.79-2.727-6.539-.661-8.716,2.245-2.369,6.444-2.034,9.378.749L57.366,59.02,45.382,29.46a8.6,8.6,0,0,1,3.155-10.536,8.325,8.325,0,0,1,11.72,3.062L75.977,50.73,60.45,12.436a8.328,8.328,0,0,1,4.9-10.963A8.538,8.538,0,0,1,75.618,5.591l6.213,11.362L80.9,14.088A8.6,8.6,0,0,1,84.788,3.8,8.325,8.325,0,0,1,96.263,7.68l21.2,46.227,6.823,14.878,4.751-21.056a19.889,19.889,0,0,1,9.344-12.784,4.656,4.656,0,0,1,6.9,4.271l-.744,22.1a82.959,82.959,0,0,1-8.563,34,49.319,49.319,0,0,1-2.6,4.549L142.341,204Z" transform="translate(20.195 0.695)" fill="#fff"/><path d="M143.036,206.393a1.7,1.7,0,0,1-1.69-1.552l-8.962-104.13a1.683,1.683,0,0,1,.258-1.058,46.793,46.793,0,0,0,2.506-4.391,80.73,80.73,0,0,0,8.39-33.307l.744-22.1a3,3,0,0,0-1.5-2.713,2.751,2.751,0,0,0-2.851-.036A18.256,18.256,0,0,0,131.389,48.8l-4.751,21.056a1.7,1.7,0,0,1-3.2.335L95.416,9.082a6.629,6.629,0,0,0-9.137-3.087,6.928,6.928,0,0,0-3.067,8.263l.931,2.866a1.7,1.7,0,0,1-3.1,1.34L74.826,7.1a6.839,6.839,0,0,0-8.2-3.338,6.628,6.628,0,0,0-3.905,8.73L78.248,50.787a1.7,1.7,0,0,1-3.063,1.454L59.462,23.5a6.622,6.622,0,0,0-9.331-2.435,6.926,6.926,0,0,0-2.479,8.456L59.637,59.077a1.7,1.7,0,0,1-2.742,1.87L39.217,44.182A6.534,6.534,0,0,0,35.3,42.336a3.733,3.733,0,0,0-3.063,1.032c-1.459,1.538-1.155,4.3.706,6.43L62.359,83.42a1.69,1.69,0,0,1,.414.983c.177.647,1.328,3.766,7.741,18.4a30.372,30.372,0,0,0,10.63,12.825,1.705,1.705,0,0,1,.734,1.38l.591,56.028a1.7,1.7,0,0,1-1.679,1.715h-.019a1.7,1.7,0,0,1-1.7-1.679l-.581-55.161A33.75,33.75,0,0,1,67.4,104.161C61.726,91.209,60,86.979,59.537,85.351L30.39,52.037c-3.024-3.455-3.289-8.186-.616-11a7,7,0,0,1,5.8-2.08,9.934,9.934,0,0,1,5.98,2.766L53.545,53.09l-9.039-22.3a10.356,10.356,0,0,1,3.827-12.615,9.939,9.939,0,0,1,7.857-1.2,10.059,10.059,0,0,1,6.252,4.887l1.6,2.929L59.574,13.77A10.027,10.027,0,0,1,65.458.573a10.259,10.259,0,0,1,12.348,4.9l2.034,3.72a9.853,9.853,0,0,1,12.769-6.84A10.069,10.069,0,0,1,98.5,7.666l25.927,56.541,3.644-16.155a21.678,21.678,0,0,1,10.142-13.876,6.113,6.113,0,0,1,6.306.048,6.438,6.438,0,0,1,3.152,5.746l-.744,22.1a84.056,84.056,0,0,1-8.738,34.7c-.659,1.335-1.44,2.719-2.377,4.22l8.913,103.561a1.7,1.7,0,0,1-1.545,1.837,1.451,1.451,0,0,1-.148.007" transform="translate(19.498 -0.001)" fill="#080717"/><path d="M75.051,43.454a1.7,1.7,0,0,1-1.545-.99L58.674,10.12A1.7,1.7,0,1,1,61.761,8.7L76.593,41.048a1.7,1.7,0,0,1-1.542,2.406" transform="translate(40.848 5.385)" fill="#080717"/><path d="M74.176,78.014a1.7,1.7,0,0,1-1.6-1.126c-.3-.842-7.274-20.867,5.768-38.357a1.7,1.7,0,0,1,2.724,2.031c-11.964,16.045-5.364,34.99-5.3,35.18a1.7,1.7,0,0,1-1.024,2.17,1.658,1.658,0,0,1-.574.1" transform="translate(49.174 26.421)" fill="#080717"/><path d="M50.939,53.919a1.7,1.7,0,0,1-1.469-2.547c10.181-17.627,41.091-22.519,42.4-22.718a1.7,1.7,0,1,1,.511,3.357c-.3.046-30.609,4.848-39.972,21.059a1.692,1.692,0,0,1-1.472.849" transform="translate(34.372 19.986)" fill="#080717"/><path d="M233.61,291.41l150.271-9.219a53.436,53.436,0,0,0,47.066-71.263L395.713,112a52.859,52.859,0,0,0-57.879-34.5l-49.907,7.723-43.645-15.3A63.541,63.541,0,0,0,174.35,89.315l-52.7,63.53-2.528-39.8L60.073,126.57,57.02,196.337a35.918,35.918,0,0,0,52.41,33.463l89.082-43.008,14.34,85.143L192.594,277Z" transform="translate(39.777 46.307)" fill="#fff"/><path d="M234.308,293.791a1.707,1.707,0,0,1-.562-.1L192.73,279.285a1.7,1.7,0,0,1,.151-3.248l18.734-4.685-13.7-81.365-87.045,42.026a37.617,37.617,0,0,1-54.845-35.068l3.055-69.765a1.7,1.7,0,0,1,1.316-1.581l59.047-13.523a1.7,1.7,0,0,1,2.075,1.547l2.257,35.531,49.971-60.241A65.509,65.509,0,0,1,245.542,69l43.244,15.165,49.484-7.66a54.614,54.614,0,0,1,59.742,35.609l35.232,98.924a55.138,55.138,0,0,1-48.562,73.53l-150.271,9.217c-.034,0-.07,0-.1,0M199.2,277.957l35.35,12.419,149.928-9.2a51.737,51.737,0,0,0,45.57-69l-35.232-98.924a51.223,51.223,0,0,0-56.02-33.394l-49.907,7.723a1.728,1.728,0,0,1-.822-.075l-43.645-15.3a62.093,62.093,0,0,0-68.062,18.875l-52.7,63.53a1.7,1.7,0,0,1-3-.976l-2.4-37.807-55.84,12.791-3,68.473a34.223,34.223,0,0,0,49.932,31.882l89.125-43.032a1.7,1.7,0,0,1,2.413,1.248l14.34,85.143a1.7,1.7,0,0,1-1.263,1.929Z" transform="translate(39.079 45.624)" fill="#080717"/><path d="M229.821,164.951s19.524-15.177,24.129-16.919,31.816-13.3,44.813,1.574,19.157,25.484,11.453,44.534c-7.083,17.513-15.281,24.959-19.375,29.086-3.1,3.126-33.736,20.218-33.736,20.218s10.248-4.89,15.028-10.068c18.037-19.539-9.312-63.014-42.312-68.426" transform="translate(160.423 99.198)" fill="#fff"/><path d="M213.917,211.407s8.9,16.846,24.312,21.964,35.508-.494,50.479-15.729c7.9-8.045-9.93-39.337-19.624-48.824-16.894-16.53-36.258-10.642-36.258-10.642l-5.308,6.814Z" transform="translate(149.321 109.701)" fill="#fff"/><path d="M250.91,237.664a39.634,39.634,0,0,1-12.518-1.968c-15.878-5.274-24.9-22.071-25.279-22.784a1.7,1.7,0,0,1,3-1.588c.087.163,8.784,16.311,23.348,21.147,15.191,5.043,34.774-1.107,48.732-15.308,1-1.022,1.5-2.7,1.479-5-.11-11.385-13.027-33.54-21.079-41.418-14.659-14.345-30.972-11.148-34.078-10.368l-4.96,6.368a1.7,1.7,0,1,1-2.679-2.085l5.308-6.816a1.7,1.7,0,0,1,.846-.582c.83-.25,20.528-5.984,37.937,11.056,7.687,7.522,21.973,30.651,22.1,43.814.032,3.23-.795,5.724-2.454,7.412-11.458,11.659-26.053,18.12-39.707,18.12" transform="translate(148.623 108.989)" fill="#080717"/><path d="M188.665,160.993s36.431-7.378,51.634.679c21.4,11.345,21.3,34.051,21.4,36.54Z" transform="translate(131.694 110.224)" fill="#fff"/><path d="M272.842,238.49a1.7,1.7,0,0,1-.6-3.287c6.123-2.316,19.512-11.433,30.1-24.447,8.747-10.752,17.921-27.128,11.939-44.089-3.831-10.871-11.669-17.972-23.289-21.1-13.4-3.613-27.9-.759-39.78,7.83l-24.465,17.694a1.7,1.7,0,1,1-1.99-2.752l24.465-17.694c12.708-9.19,28.255-12.234,42.653-8.356,12.768,3.442,21.383,11.266,25.61,23.256,12.056,34.195-31.425,68.067-44.042,72.842a1.7,1.7,0,0,1-.6.109" transform="translate(156.397 98.169)" fill="#080717"/><path d="M219.769,164.779a9.452,9.452,0,0,0-10.355-5.98c-31.086,5.082-39.753,28.49-40.106,29.481a9.442,9.442,0,0,0,17.738,6.476c.311-.786,5.85-14.1,25.435-17.3a9.463,9.463,0,0,0,7.288-12.676" transform="translate(117.798 110.759)" fill="#fff"/><path d="M178.883,203.31a11.01,11.01,0,0,1-3.729-.65,11.176,11.176,0,0,1-6.748-14.25c.368-1.034,9.361-25.345,41.432-30.59a11.159,11.159,0,0,1,10.847,17.524,11.038,11.038,0,0,1-7.234,4.485c-18.733,3.065-23.915,15.712-24.126,16.248a11.148,11.148,0,0,1-10.443,7.234m32.745-42.239a7.505,7.505,0,0,0-1.241.1c-30.116,4.924-38.44,27.42-38.78,28.376a7.744,7.744,0,0,0,14.545,5.318c.253-.644,6.133-15.017,26.752-18.391a7.734,7.734,0,0,0,6.376-8.9,7.9,7.9,0,0,0-.4-1.5v0a7.776,7.776,0,0,0-7.252-5.006" transform="translate(117.102 110.061)" fill="#080717"/><path d="M216.87,158.613c-29.51,11-33.5,35.65-33.653,36.694a9.439,9.439,0,0,0,18.65,2.924c.151-.822,3.011-14.968,21.611-21.9Z" transform="translate(127.818 110.717)" fill="#fff"/><path d="M193.256,208.561a11.139,11.139,0,0,1-11.02-12.807c.161-1.085,4.32-26.693,34.738-38.034a1.7,1.7,0,0,1,1.187,3.182c-28.564,10.65-32.417,34.35-32.567,35.353a7.74,7.74,0,0,0,15.293,2.406c.124-.683,3.133-15.934,22.693-23.226a1.7,1.7,0,1,1,1.189,3.184c-17.777,6.626-20.431,20.049-20.534,20.618a11.153,11.153,0,0,1-10.978,9.324" transform="translate(127.121 110.019)" fill="#080717"/><path d="M223.15,161.339c-25.954,11.684-29.61,34.149-29.76,35.146a9.475,9.475,0,0,0,18.724,2.917c.153-.829,3.04-15.011,21.72-21.974Z" transform="translate(134.919 112.62)" fill="#fff"/><path d="M203.452,209.759a11.166,11.166,0,0,1-11.044-12.827c.149-.99,3.938-24.375,30.746-36.445a1.7,1.7,0,0,1,1.391,3.1C199.41,174.9,195.906,196.52,195.77,197.435a7.776,7.776,0,0,0,15.365,2.394c.129-.684,3.152-15.968,22.8-23.294a1.7,1.7,0,1,1,1.187,3.184c-17.87,6.658-20.538,20.118-20.643,20.687a11.211,11.211,0,0,1-11.03,9.353" transform="translate(134.221 111.921)" fill="#080717"/><path d="M228.453,168.363c-17.675,7.745-22.382,22.779-22.859,24.469a9.475,9.475,0,0,0,18.2,5.286c.175-.537,2.843-8.266,12.267-12.4Z" transform="translate(143.26 117.523)" fill="#fff"/><path d="M215.386,207.283a11.17,11.17,0,0,1-10.725-14.218c.5-1.764,5.39-17.488,23.808-25.561a1.7,1.7,0,1,1,1.364,3.111c-16.989,7.446-21.451,21.765-21.9,23.373a7.777,7.777,0,0,0,14.936,4.342c.314-.959,3.23-9.091,13.212-13.465a1.7,1.7,0,1,1,1.362,3.111c-8.779,3.848-11.234,11.063-11.334,11.367a11.2,11.2,0,0,1-10.718,7.94" transform="translate(142.561 116.826)" fill="#080717"/><path d="M262.4,200.611a1.7,1.7,0,0,1-1.695-1.63l-.012-.35c-.212-7.3-2.634-25.289-20.492-34.757-14.488-7.68-50.143-.586-50.5-.513a1.7,1.7,0,0,1-.674-3.33c1.511-.307,37.2-7.405,52.766.842,19.436,10.3,22.066,29.768,22.3,37.659l.01.312a1.7,1.7,0,0,1-1.628,1.764c-.024,0-.046,0-.07,0" transform="translate(130.996 109.521)" fill="#080717"/><path d="M140.785,103.433l5.617,9.621s-29.558,36.667,4.805,61.182Z" transform="translate(93.942 72.2)" fill="#fff"/><path d="M151.9,176.632a1.7,1.7,0,0,1-.985-.316c-9.888-7.055-15.61-15.787-17-25.956-2.347-17.106,8.212-32.769,11.146-36.735l-5.043-8.638a1.7,1.7,0,1,1,2.933-1.712l5.615,9.621a1.7,1.7,0,0,1-.143,1.92c-.138.168-13.611,17.171-11.139,35.1,1.267,9.195,6.519,17.147,15.608,23.632a1.7,1.7,0,0,1-.988,3.08" transform="translate(93.242 71.501)" fill="#080717"/><path d="M97.285,142.78l-2.218-25.5Z" transform="translate(66.36 81.868)" fill="#fff"/><path d="M97.98,145.177a1.7,1.7,0,0,1-1.69-1.55l-2.218-25.5a1.7,1.7,0,1,1,3.382-.3l2.218,25.5a1.7,1.7,0,0,1-1.543,1.839,1.466,1.466,0,0,1-.149.007" transform="translate(65.661 81.169)" fill="#080717"/><path d="M221.338,120.991q-2.157,0-4.327-.2l-8.268-.779a47.041,47.041,0,0,1-42.373-51.016,1.7,1.7,0,1,1,3.382.307,43.641,43.641,0,0,0,39.308,47.328l8.269.778A43.784,43.784,0,0,0,256.44,99.932l18.568-25.117a1.7,1.7,0,1,1,2.73,2.021l-18.57,25.116a47.253,47.253,0,0,1-37.83,19.04" transform="translate(115.996 47.082)" fill="#080717"/><rect width="48.676" height="72.148" transform="translate(312.245 67.436)" fill="#fff"/><path d="M200.186,12.643l.177.419a77.1,77.1,0,0,0,42.526,41.653l-7.123,33.331-31.977,6.976a30.589,30.589,0,0,1-36.114-37.606l5.773-22.136a30.445,30.445,0,0,1,26.739-22.636" transform="translate(116.346 8.825)" fill="#fff"/><path d="M232.644,47.651a12.772,12.772,0,1,1-12.771-12.769,12.771,12.771,0,0,1,12.771,12.769" transform="translate(144.563 24.349)" fill="#fff"/><path d="M184.311,71.986a1.7,1.7,0,1,1,0-3.4c29.245,0,35.8-15.311,36.065-15.962a1.7,1.7,0,0,1,3.157,1.253c-.292.74-7.51,18.1-39.221,18.1" transform="translate(127.47 35.994)" fill="#080717"/><path d="M213.077,49.669a1.7,1.7,0,0,1-1.637-2.151c.105-.372,2.6-9.12,8.976-10.183a1.7,1.7,0,1,1,.557,3.35c-3.515.586-5.71,5.789-6.261,7.743a1.7,1.7,0,0,1-1.635,1.241" transform="translate(147.549 26.045)" fill="#080717"/><path d="M194.015,59.837c-6.391,0-12.226-8.089-12.946-9.122a1.7,1.7,0,0,1,.966-2.612l18.819-4.929a1.7,1.7,0,0,1,2.121,1.5c.042.492.919,12.087-6.5,14.736a7.264,7.264,0,0,1-2.462.426m-8.623-9.1c2.479,2.885,6.668,6.65,9.944,5.48,3.454-1.234,4.155-6.3,4.267-9.2Z" transform="translate(126.18 30.098)" fill="#080717"/><path d="M182.429,31.735a1.759,1.759,0,0,0-1.958-1.465,4.492,4.492,0,0,0-3.09,1.912c-.061.088-.1.18-.148.27a2.378,2.378,0,0,0-.739.761,3.027,3.027,0,0,0-.5,1.482,2.8,2.8,0,0,0,.526,1.832,2.922,2.922,0,0,0,1.769,1.031,3.234,3.234,0,0,0,1.669-.16,3.76,3.76,0,0,0,2.224-2.155,7.04,7.04,0,0,0,.243-3.508" transform="translate(122.851 21.121)"/><path d="M200.578,33.7a1.674,1.674,0,0,0-.878-1.251,1.309,1.309,0,0,0-.638-.221,1.743,1.743,0,0,0-.868.126,4.865,4.865,0,0,0-2.484,1.807,5.238,5.238,0,0,0-.606,1.1,4.784,4.784,0,0,0-.277.572,4.069,4.069,0,0,0-.211,2.459,1.73,1.73,0,0,0,.345.813,1.3,1.3,0,0,0,.535.436,1.737,1.737,0,0,0,1.506.1,5.7,5.7,0,0,0,3.576-5.941" transform="translate(135.775 22.492)"/><path d="M188.361,53.021a1.7,1.7,0,0,1-.876-3.153s3.709-2.612,4.106-12.949c.146-3.783-.8-6.436-2.82-7.882-3.945-2.827-11.547-.869-14.143.122a1.7,1.7,0,0,1-1.217-3.17c.448-.175,11.085-4.187,17.332.284,3.007,2.151,4.435,5.778,4.242,10.777-.469,12.216-5.211,15.406-5.75,15.729a1.688,1.688,0,0,1-.873.243" transform="translate(120.286 16.869)" fill="#080717"/><path d="M230.06,126.192l9.859,35.849Z" transform="translate(160.59 88.086)" fill="#fff"/><path d="M240.615,164.437a1.7,1.7,0,0,1-1.635-1.246l-9.859-35.851a1.7,1.7,0,0,1,3.274-.9l9.859,35.849a1.7,1.7,0,0,1-1.185,2.089,1.744,1.744,0,0,1-.453.061" transform="translate(159.892 87.388)" fill="#080717"/><path d="M42.351,280.16H230.776L182.532,100.107c-2.776-10.361-14.148-18.276-23.954-16.673L10.394,107.662C2.527,108.947-1.63,116.021.6,124.333Z" transform="translate(0 58.095)" fill="#080717"/><path d="M314.747,207.6H69.566V187.171h228.55A16.631,16.631,0,0,1,314.747,203.8Z" transform="translate(48.559 130.652)" fill="#080717"/><path d="M51.721,158.807C55.151,168.934,63.4,175.289,70.156,173s9.443-12.35,6.011-22.477-11.684-16.481-18.434-14.194-9.443,12.35-6.013,22.477" transform="translate(35.062 94.838)" fill="#fff"/></g></svg>