<svg xmlns="http://www.w3.org/2000/svg" xmlns:xlink="http://www.w3.org/1999/xlink" width="218.528" height="204.907" viewBox="0 0 218.528 204.907"><defs><clipPath id="a"><rect width="218.528" height="204.907" fill="none"/></clipPath></defs><g clip-path="url(#a)"><path d="M77.942,120.006h0a19.326,19.326,0,0,0,21.607-16.735l2.6-20.5L63.813,77.895,61.207,98.4a19.325,19.325,0,0,0,16.735,21.607" fill="#fff"/><path d="M80.42,121.163a20.576,20.576,0,0,1-2.6-.165,20.347,20.347,0,0,1-17.6-22.725l2.6-20.5a1,1,0,0,1,1.118-.866l38.341,4.872a1,1,0,0,1,.866,1.118l-2.605,20.5A20.331,20.331,0,0,1,80.42,121.163m-2.352-2.149a18.323,18.323,0,0,0,20.488-15.869l2.48-19.512-36.357-4.62L62.2,98.525a18.323,18.323,0,0,0,15.868,20.489" fill="#080717"/><path d="M60.416,104.627l3.4-26.731,24.354,3.095L94.783,91.12c-7.359,9.467-19.513,14.529-34.367,13.507" fill="#080717"/><path d="M68.327,82.258h0A39.578,39.578,0,0,1,47.079,30.476l.813-1.944A39.579,39.579,0,0,1,99.674,7.284h0a39.577,39.577,0,0,1,21.247,51.781l-.813,1.944A39.576,39.576,0,0,1,68.327,82.258" fill="#080717"/><path d="M81.887,74.941h0A33.03,33.03,0,0,1,64.155,31.727L66.761,25.5a33.029,33.029,0,1,1,60.945,25.481L125.1,57.209A33.028,33.028,0,0,1,81.887,74.941" fill="#080717"/><path d="M132.257,48.748a.918.918,0,0,1-.187-.018,1,1,0,0,1-.8-1.168c1.824-9.645.337-18.039-4.422-24.95C121.83,15.318,113.025,9.92,103.3,8.173a1,1,0,1,1,.354-1.969c10.24,1.84,19.529,7.55,24.847,15.274,5.072,7.366,6.667,16.268,4.739,26.456a1,1,0,0,1-.981.814" fill="#080717"/><path d="M52.867,55.3l-6.826-3a8.243,8.243,0,1,1,6.638-15.09l6.826,3A8.243,8.243,0,1,1,52.867,55.3" fill="#fff"/><path d="M56.182,57.005a9.219,9.219,0,0,1-3.717-.787l-6.827-3a9.243,9.243,0,1,1,7.443-16.921l6.826,3a9.248,9.248,0,0,1-3.725,17.708M49.37,37.512a7.243,7.243,0,0,0-2.928,13.872l6.827,3A7.243,7.243,0,0,0,59.1,41.128l-6.826-3a7.2,7.2,0,0,0-2.906-.613" fill="#080717"/><path d="M100.691,20.961l1.734.725A33.344,33.344,0,0,1,122.691,48.6l2.228.239a8.243,8.243,0,1,1-1.762,16.391l-2.667-.287c-.053.132-.1.264-.154.4l-4.928,11.787a33.362,33.362,0,0,1-43.65,17.911l-1.735-.725A33.363,33.363,0,0,1,52.112,50.66L57.04,38.872a33.363,33.363,0,0,1,43.651-17.911" fill="#fff"/><path d="M84.626,98.636a34.311,34.311,0,0,1-13.254-2.678l-1.735-.725A34.4,34.4,0,0,1,51.189,50.274l4.929-11.787a34.363,34.363,0,0,1,44.959-18.449h0l1.734.725a34.439,34.439,0,0,1,20.771,26.924l1.445.155a9.242,9.242,0,1,1-1.976,18.379l-1.915-.205L116.331,77.51A34.445,34.445,0,0,1,84.626,98.636m3.239-79.257a32.411,32.411,0,0,0-29.9,19.879L53.035,51.046A32.4,32.4,0,0,0,70.409,93.388l1.734.724a32.361,32.361,0,0,0,42.342-17.374l5.077-12.169a1,1,0,0,1,1.034-.622l2.668.287a7.243,7.243,0,1,0,1.549-14.4l-2.229-.24a1,1,0,0,1-.886-.878A32.432,32.432,0,0,0,102.04,22.609l-1.735-.725a32.185,32.185,0,0,0-12.44-2.505" fill="#080717"/><path d="M55.531,38.1l-.022.053C62.5,36.752,71.89,25.593,78.278,10.315l.022-.052C71.31,11.668,61.919,22.827,55.531,38.1" fill="#080717"/><path d="M121.978,60.461A1,1,0,0,1,121,59.232a8.048,8.048,0,0,1,6.453-6.068,1,1,0,0,1,.291,1.979,6.054,6.054,0,0,0-4.8,4.547,1,1,0,0,1-.973.771" fill="#080717"/><path d="M51.786,49.505a1,1,0,0,1-.958-1.287,6.056,6.056,0,0,0-1.9-6.332,1,1,0,0,1,1.24-1.57,8.047,8.047,0,0,1,2.571,8.475,1,1,0,0,1-.958.714" fill="#080717"/><path d="M81.938,41.507c-.039,1.372-3.152,2.4-6.951,2.287s-6.848-1.309-6.809-2.681,3.151-2.4,6.951-2.288,6.848,1.31,6.809,2.682" fill="#080717"/><path d="M106.163,49.646c-.615,1.227-3.869.841-7.267-.862s-5.654-4.08-5.039-5.307,3.868-.841,7.267.863,5.654,4.079,5.039,5.306" fill="#080717"/><path d="M83.569,65.056a1,1,0,0,1-.478-.122,5.482,5.482,0,0,1-1.9-7.911l5.073-7.42a1,1,0,1,1,1.651,1.129l-5.073,7.42a3.483,3.483,0,0,0,1.209,5.026,1,1,0,0,1-.479,1.878" fill="#080717"/><path d="M84.31,82.189a6.965,6.965,0,0,1-4.9-2.169,1,1,0,1,1,1.388-1.438,4.881,4.881,0,0,0,3.931,1.588c3.4-.31,6.278-4.274,6.307-4.314a1,1,0,0,1,1.627,1.164c-.14.193-3.449,4.751-7.752,5.142q-.3.027-.6.027" fill="#080717"/><path d="M114.476,19.133a64.315,64.315,0,0,1,12.393,14.275,18.486,18.486,0,0,1-2.168,3.049c-3.965,4.52-9.758,6.726-16.061,6.695a72.633,72.633,0,0,1-9.19-6.891C87.131,25.454,80.508,12.859,84.658,8.129s17.5.2,29.818,11" fill="#080717"/><path d="M62.995,17.3c-6.086,3.665-9.547,9.072-10.357,14.363a18.476,18.476,0,0,0,3.174,1.978c5.4,2.644,11.6,2.449,17.4-.007.033-4.174,5.1-10.344,12.251-13.571C100.4,13.325,81.275,6.294,62.995,17.3" fill="#080717"/><path d="M96.72,56.506c-.8,2.18-2.576,3.534-3.964,3.024s-1.862-2.691-1.061-4.871,2.577-3.535,3.964-3.025,1.863,2.692,1.061,4.872" fill="#080717"/><path d="M74.691,52.947c-.8,2.18-2.576,3.534-3.964,3.024S68.865,53.28,69.666,51.1s2.577-3.535,3.964-3.024,1.863,2.691,1.061,4.871" fill="#080717"/><path d="M91.233,8.94a.986.986,0,0,1-.327-.056,1,1,0,0,1-.618-1.272c1.98-5.715,9.385-6.07,9.7-6.082a1,1,0,0,1,.08,2c-.064,0-6.359.32-7.89,4.739a1,1,0,0,1-.945.673" fill="#080717"/><path d="M91.861,6.309a1.02,1.02,0,0,1-.232-.027,1,1,0,0,1-.742-1.2A2.619,2.619,0,0,0,89.679,1.9a1.006,1.006,0,0,1-.47-1.33A1,1,0,0,1,90.525.092a4.626,4.626,0,0,1,2.308,5.449,1,1,0,0,1-.972.768" fill="#080717"/><path d="M100.061,41.141a1,1,0,0,1-.576-.184C91.331,35.191,86.349,28,84.679,19.573a1,1,0,1,1,1.961-.389c1.568,7.9,6.278,14.68,14,20.141a1,1,0,0,1-.578,1.816" fill="#080717"/><path d="M126.092,40.5l-7.746,20.863-3.7-.5,1.567-27.114Z" fill="#080717"/><path d="M191.739,204.624a26.22,26.22,0,0,1-18-7.1L90.725,120.1a19.69,19.69,0,0,1,6.1-32.676l12.122-4.861L110.17,71.5a9.818,9.818,0,0,1,3.227-6.258,2.819,2.819,0,0,1,4.694,2l.638,17.124a.987.987,0,0,1-.11.495L112.454,96.82l79.975,65.563a1,1,0,1,1-1.267,1.547l-80.6-66.076a1,1,0,0,1-.255-1.232l6.416-12.45-.628-16.862a.82.82,0,0,0-1.364-.581,7.824,7.824,0,0,0-2.571,4.987L110.87,83.381a1,1,0,0,1-.622.818L97.57,89.283a17.691,17.691,0,0,0-5.481,29.358L175.1,196.06a24.43,24.43,0,0,0,34.68-34.363l-55.959-61.114A48.484,48.484,0,0,0,128.2,85.864l-6.9-1.38a1,1,0,1,1,.392-1.961l6.913,1.383a50.47,50.47,0,0,1,26.7,15.327l55.959,61.113A26.43,26.43,0,0,1,192.829,204.6c-.364.015-.729.022-1.09.022" fill="#080717"/><path d="M96.721,87.163l11.964-4.8,1.2-10.9a10.112,10.112,0,0,1,3.32-6.44,3.076,3.076,0,0,1,3.261-.548l.018.008a3.077,3.077,0,0,1,1.887,2.739l.546,14.613,9.761,1.8a50.7,50.7,0,0,1,26.828,15.41l55.959,61.112a26.71,26.71,0,0,1-37.919,37.574L90.532,120.31a19.974,19.974,0,0,1,6.189-33.147" fill="#fff"/><path d="M115.492,72.052c.726-1.737,3.822-4.688,5.636-5.19a1.457,1.457,0,0,1,1.842,1.521L121.892,81.82l-7.649,9.444-3.3,3.092Z" fill="#fff"/><path d="M114.242,92.263a1,1,0,0,1-.776-1.629l7.454-9.2L121.972,68.3a.457.457,0,0,0-.578-.477,5.105,5.105,0,0,0-3.367,2.968,1,1,0,0,1-1.845-.773,7.1,7.1,0,0,1,4.679-4.123,2.458,2.458,0,0,1,3.106,2.565L122.888,81.9a1,1,0,0,1-.219.549l-7.649,9.444a1,1,0,0,1-.778.371" fill="#080717"/><path d="M191.739,204.624a26.22,26.22,0,0,1-18-7.1L90.725,120.1a19.69,19.69,0,0,1,6.1-32.676l12.122-4.861L110.17,71.5a9.818,9.818,0,0,1,3.227-6.258,2.819,2.819,0,0,1,4.694,2l.638,17.124a.987.987,0,0,1-.11.495L112.454,96.82l79.975,65.563a1,1,0,1,1-1.267,1.547l-80.6-66.076a1,1,0,0,1-.255-1.232l6.416-12.45-.628-16.862a.82.82,0,0,0-1.364-.581,7.824,7.824,0,0,0-2.571,4.987L110.87,83.381a1,1,0,0,1-.622.818L97.57,89.283a17.691,17.691,0,0,0-5.481,29.358L175.1,196.06a24.43,24.43,0,0,0,34.68-34.363l-55.959-61.114A48.484,48.484,0,0,0,128.2,85.864l-6.9-1.38a1,1,0,1,1,.392-1.961l6.913,1.383a50.47,50.47,0,0,1,26.7,15.327l55.959,61.113A26.43,26.43,0,0,1,192.829,204.6c-.364.015-.729.022-1.09.022" fill="#080717"/><path d="M149.911,129.377a1,1,0,0,1-.648-1.761l17-14.477a1,1,0,1,1,1.3,1.523l-17,14.476a1,1,0,0,1-.648.239" fill="#080717"/><path d="M48.162,120.072l-2.371-12.7a4.937,4.937,0,0,0-9.733,1.663l2.371,12.7a4.937,4.937,0,1,0,9.733-1.663" fill="#fff"/><path d="M43.283,126.884a5.98,5.98,0,0,1-5.881-4.973L35.033,109.23A5.979,5.979,0,1,1,46.817,107.2l2.369,12.68,0,.016a5.986,5.986,0,0,1-4.887,6.9,6.079,6.079,0,0,1-1.019.087m-2.351-22.572a3.9,3.9,0,0,0-3.848,4.552l2.369,12.68a3.895,3.895,0,1,0,7.682-1.289l-2.37-12.688a3.9,3.9,0,0,0-3.833-3.255" fill="#080717"/><path d="M40.09,124.232l-3.056-17.884a4.735,4.735,0,0,0-5.466-3.871l-.4.068a4.735,4.735,0,0,0-3.87,5.466l3.055,17.884a4.738,4.738,0,0,0,5.467,3.871l.4-.068a4.735,4.735,0,0,0,3.871-5.466" fill="#fff"/><path d="M35.023,130.876a5.788,5.788,0,0,1-5.692-4.806l-3.057-17.884A5.779,5.779,0,0,1,31,101.517l.4-.068a5.777,5.777,0,0,1,6.669,4.723l3.057,17.884a5.785,5.785,0,0,1-4.723,6.669l-.4.068a5.777,5.777,0,0,1-.976.083M32.374,103.45a3.732,3.732,0,0,0-.63.054l-.394.068a3.7,3.7,0,0,0-3.021,4.263l3.057,17.884a3.692,3.692,0,0,0,4.262,3.019l.4-.067a3.7,3.7,0,0,0,3.018-4.263l-3.056-17.885a3.7,3.7,0,0,0-3.633-3.073" fill="#080717"/><path d="M31.363,124.345l-3.056-17.884a4.735,4.735,0,0,0-5.466-3.871l-.4.067a4.736,4.736,0,0,0-3.87,5.467l3.055,17.884a4.737,4.737,0,0,0,5.466,3.871l.4-.068a4.737,4.737,0,0,0,3.871-5.466" fill="#fff"/><path d="M26.286,130.991a5.781,5.781,0,0,1-5.683-4.807L17.547,108.3a5.779,5.779,0,0,1,4.722-6.67l.4-.067a5.782,5.782,0,0,1,6.669,4.723L32.39,124.17a5.785,5.785,0,0,1-4.723,6.669l-.4.067a5.766,5.766,0,0,1-.985.085M23.64,103.565a3.677,3.677,0,0,0-.624.053l-.4.067a3.694,3.694,0,0,0-3.018,4.263l3.056,17.885a3.692,3.692,0,0,0,4.262,3.019l.4-.068a3.7,3.7,0,0,0,3.018-4.263L27.28,106.637a3.7,3.7,0,0,0-3.64-3.072" fill="#080717"/><path d="M22.088,123.863,19.1,106.374a4.937,4.937,0,0,0-5.7-4.034C10.714,102.8.6,111.228,1.055,113.915l9.314-.017,1.986,11.628a4.937,4.937,0,1,0,9.733-1.663" fill="#fff"/><path d="M17.22,130.674a5.986,5.986,0,0,1-5.891-4.972L9.49,114.942l-8.432.016h0a1.044,1.044,0,0,1-1.028-.868c-.279-1.631,1.514-4.181,5.328-7.577,2.667-2.375,6.135-4.9,7.871-5.2a5.984,5.984,0,0,1,6.9,4.886l2.987,17.489a5.982,5.982,0,0,1-5.9,6.986m-6.851-17.818a1.041,1.041,0,0,1,1.027.867l1.987,11.628a3.894,3.894,0,1,0,7.677-1.312L18.073,106.55a3.9,3.9,0,0,0-4.495-3.183c-2.37.405-9.667,6.787-11.21,9.5l8-.014Z" fill="#080717"/></g></svg>