<svg xmlns="http://www.w3.org/2000/svg" width="563.273" height="135.479" viewBox="0 0 563.273 135.479"><g transform="matrix(0.966, -0.259, 0.259, 0.966, -9.82, 62.314)"><rect width="5.929" height="2.452" transform="translate(552.48 127.8)" fill="#fe9d2b"/><rect width="5.93" height="2.452" transform="matrix(0.5, -0.866, 0.866, 0.5, 547.792, 122.83)" fill="#fe9d2b"/><rect width="2.451" height="5.929" transform="translate(538.18 119.269) rotate(-29.985)" fill="#fe9d2b"/><rect width="5.932" height="2.452" transform="translate(533.253 128.498)" fill="#fe9d2b"/><rect width="2.453" height="5.931" transform="translate(548.396 135.571) rotate(-29.999)" fill="#fe9d2b"/><path d="M20.285,29.683,25.32,14.842,30.353,0,15.511,5.034.672,10.07l9.358,3.579L0,23.679l6.673,6.674L16.705,20.324Z" transform="translate(512.439 136.412)" fill="#fe9d2b"/><path d="M23.294,35.254,19.175,24.485l-9.562,9.56L1.207,25.638l9.559-9.559L0,11.96,35.25,0ZM4.674,25.638l4.939,4.941,10.5-10.5,3.039,7.951,8.179-24.11L7.222,12.1l7.951,3.041Z" transform="translate(509.498 134.452)" fill="#fe9d2b"/><path d="M2.454,22.022,17.829,25.06,33.2,28.1,26.262,14.05,19.32,0,17,9.748,5.739,1.125,0,8.617l11.263,8.625Z" transform="translate(425.784 136.015)" fill="#fe9d2b"/><path d="M37.122,33.374.6,26.155l10.135-5.5L0,12.435,7.231,3l10.734,8.218L20.631,0ZM7.746,25.068l24.978,4.938L21.445,7.178l-1.97,8.282L7.686,6.433,3.437,11.979l11.791,9.028Z" transform="translate(424.065 132.426)" fill="#fe9d2b"/><path d="M3.354,23.112,18.9,25.1,34.446,27.1,26.567,13.548,18.69,0,17.037,9.882,5.218,2.041,0,9.906l11.818,7.841Z" transform="translate(379.996 123.194)" fill="#fe9d2b"/><path d="M38.452,32.182,1.526,27.451l9.738-6.172L0,13.8,6.574,3.9,17.84,11.371,19.74,0Zm-29.873-6.3,25.256,3.236-12.8-22.01-1.4,8.394L7.262,7.295,3.4,13.116,15.77,21.325Z" transform="translate(378.297 119.64)" fill="#fe9d2b"/><path d="M20.285,29.683l5.034-14.84L30.353,0,15.511,5.034.671,10.071l9.359,3.579L0,23.679l6.673,6.673L16.7,20.324Z" transform="translate(121.426 28.415)" fill="#fe9d2b"/><path d="M23.294,35.254,19.175,24.487,9.614,34.045,1.207,25.639l9.56-9.56L0,11.961,35.252,0ZM4.674,25.639l4.94,4.94,10.5-10.5,3.041,7.951,8.18-24.113L7.222,12.1l7.952,3.04Z" transform="translate(118.485 26.455)" fill="#fe9d2b"/><path d="M13.294,27.28l12.567-9.359L38.43,8.559,23.355,4.278,8.279,0l5.673,8.261L0,10.824l1.706,9.283,13.95-2.563Z" transform="translate(59.424 60.993)" fill="#fe9d2b"/><path d="M12.726,32.4l2.719-11.2-13.3,2.443L0,11.948,13.3,9.5,6.77,0,42.581,10.166Zm5.993-14.3-2.008,8.272L37.132,11.167,12.638,4.214l4.82,7.019-14.6,2.682,1.263,6.872Z" transform="translate(57.998 58.885)" fill="#fe9d2b"/><path d="M7.316,26.748,22.7,23.783l15.389-2.969L26.376,10.407,14.658,0l1.519,9.906L2.5,6.15,0,15.25l13.677,3.757Z" transform="translate(285.959 62.776)" fill="#fe9d2b"/><path d="M5.718,31.767l7.32-8.905L0,19.279,3.149,7.816,16.185,11.4,14.439,0,42.272,24.72Zm-2.7-14.2L17.332,21.5l-5.4,6.576,25-4.821L17.892,6.346l1.29,8.414L4.864,10.829Z" transform="translate(284.452 59.603)" fill="#fe9d2b"/><path d="M3.543,23.329l15.57,1.77,15.573,1.77L26.617,13.435,18.546,0,17.035,9.906,5.1,2.232,0,10.17l11.927,7.674Z" transform="translate(1.694 41.487)" fill="#fe9d2b"/><path d="M20.94,7.09,34.048,28.915,8.75,26.04l7.124-4.659L3.388,13.348,7.166,7.471l12.49,8.034ZM17.8,11.4,6.431,4.084,0,14.083,11.368,21.4,1.722,27.709l36.986,4.2L19.539,0Z" transform="translate(0 37.942)" fill="#fe9d2b"/><path d="M7.021,26.552l15.457-2.574L37.937,21.4,26.49,10.7,15.039,0l1.267,9.939L2.729,5.838,0,14.873l13.578,4.1Z" transform="translate(245.315 17.751)" fill="#fe9d2b"/><path d="M5.4,31.536l7.544-8.717L0,18.909,3.436,7.528l12.942,3.908L14.92,0l27.2,25.419ZM3.055,17.272l14.213,4.294L11.7,28l25.114-4.182L18.212,6.432l1.078,8.445L5.074,10.584Z" transform="translate(243.789 14.534)" fill="#fe9d2b"/><path d="M0,18.552l13.438,8.062,13.437,8.065L25.1,19.109,23.323,3.536l-5.482,8.391L10.164,0,2.228,5.109,9.906,17.036Z" transform="translate(339.328 82.839)" fill="#fe9d2b"/><path d="M31.919,38.7,0,19.549,11.4,17.8,4.079,6.435,14.076,0l7.317,11.368L27.7,1.716ZM7.089,20.944l21.833,13.1-2.887-25.3-4.657,7.128L13.342,3.389,7.468,7.171,15.5,19.656Z" transform="translate(335.784 81.144)" fill="#fe9d2b"/><path d="M16.41,25.652,26.768,13.893,37.128,2.134,21.494,1.065,5.858,0l7.259,6.906L0,12.3l3.59,8.728,13.117-5.392Z" transform="translate(161.824 33.55)" fill="#fe9d2b"/><path d="M16.683,30.466l.343-11.525-12.5,5.141L0,13.087,12.5,7.944,4.152,0,41.29,2.535Zm2.908-15.228-.255,8.507,16.831-19.1-25.4-1.733,6.166,5.867L3.2,14.422l2.658,6.46Z" transform="translate(160.224 32.096)" fill="#fe9d2b"/><path d="M15.454,26.315,26.6,15.3,37.739,4.276,22.213,2.137,6.688,0l6.77,7.39L0,11.871l2.982,8.954L16.44,16.344Z" transform="translate(200.399 1.677)" fill="#fe9d2b"/><path d="M3.1,14.323l14.088-4.69L11.437,3.355,36.661,6.829l-18.105,17.9.838-8.47L5.308,20.953ZM12.826,8.5,0,12.773l3.756,11.28,12.828-4.272L15.45,31.254,41.915,5.076,5.04,0Z" transform="translate(198.849 0)" fill="#fe9d2b"/><path d="M2.452,2.452h23.89V26.34H2.452ZM0,28.792H28.792V0H0Z" transform="translate(475.178 163.778)" fill="#fe9d2b"/><rect width="37.25" height="2.451" transform="matrix(0.707, -0.707, 0.707, 0.707, 475.542, 190.482)" fill="#fe9d2b"/><rect width="2.452" height="37.25" transform="translate(475.537 165.871) rotate(-45)" fill="#fe9d2b"/></g></svg>