<svg xmlns="http://www.w3.org/2000/svg" xmlns:xlink="http://www.w3.org/1999/xlink" width="536.911" height="552.005" viewBox="0 0 536.911 552.005"><defs><clipPath id="a"><rect width="536.911" height="552.004" fill="none"/></clipPath></defs><path d="M266.718,160.208l212.4-27.459L321.76,236.116l64.4,168.025L234.191,325.028,120.533,444.57l2.459-169.044L0,204.437l153.8-29.05,18.979-170Z" transform="translate(57.791 -0.263)" fill="#fff"/><path d="M350.079,0,288.751,178.005,442.441,271.6,273.813,301.9,256.958,465.988l-101.4-135.275L14.762,349.652l103.95-117.021L29.794,86.5l168.992,65.089Z" transform="translate(80.431 0.001)" fill="#fff"/><g transform="translate(0 0.001)"><g clip-path="url(#a)"><path d="M212.915,280.65,238.488,297.7l.836-23.423a23.7,23.7,0,0,0-7.362-18.03l-16.612-15.781Z" transform="translate(95.081 -11.774)" fill="#080717"/><path d="M305.937,280.65,280.364,297.7l-.837-23.423a23.7,23.7,0,0,1,7.362-18.03L303.5,240.464Z" transform="translate(-34.852 -11.774)" fill="#080717"/><path d="M258.663,274.231a81.135,81.135,0,0,0-20.055,2.6,206.871,206.871,0,0,1-7.953-57.4c0-39.789,10.719-59.292,28.007-85.227,17.291,25.935,28.009,45.439,28.009,85.227a206.829,206.829,0,0,1-7.953,57.4,81.139,81.139,0,0,0-20.056-2.6" transform="translate(30.876 -6.571)" fill="#1a5eab"/><path d="M255.735,246.867h8.181a1.353,1.353,0,0,1,1.352,1.352v49.794H254.383V248.219a1.353,1.353,0,0,1,1.352-1.352" transform="translate(29.715 -12.087)" fill="#080717"/><path d="M248.262,196.669a11.264,11.264,0,1,0,11.264-11.264,11.264,11.264,0,0,0-11.264,11.264" transform="translate(30.015 -9.078)" fill="#080717"/><path d="M185.636,433.307a20.514,20.514,0,1,1,0-41.028h.941a30.215,30.215,0,0,1,58.441,10.8h4.319a15.115,15.115,0,1,1,0,30.231h-63.7Z" transform="translate(115.422 -18.255)" fill="#fe9d2b"/><path d="M345.992,433.307c11.329,0-10.274-9.183-10.274-20.514A20.514,20.514,0,0,0,315.2,392.28h-.94a30.216,30.216,0,0,0-58.442,10.8H251.5a15.115,15.115,0,1,0,0,30.231h94.488Z" transform="translate(-37.181 -18.255)" fill="#fe9d2b"/><path d="M235.138,378.345A23.746,23.746,0,1,0,258.884,354.6a23.746,23.746,0,0,0-23.746,23.746" transform="translate(30.656 -17.362)" fill="#fe9d2b"/><path d="M255.494,309.9h8.6a1.752,1.752,0,0,1,1.752,1.753v66.407a1.752,1.752,0,0,1-1.752,1.753h-8.6a1.753,1.753,0,0,1-1.753-1.753V311.65a1.753,1.753,0,0,1,1.753-1.753" transform="translate(29.745 -15.173)" fill="#fe9d2b"/><path d="M371.282,363.315l19.453,4.9Z" transform="translate(-206.927 -17.789)" fill="#1a5eab"/><path d="M392.375,379.783l9.962,10.092Z" transform="translate(-238.589 -18.595)" fill="#1a5eab"/></g></g></svg>