<svg xmlns="http://www.w3.org/2000/svg" xmlns:xlink="http://www.w3.org/1999/xlink" width="141.219" height="120.726" viewBox="0 0 141.219 120.726"><defs><clipPath id="a"><rect width="141.219" height="120.726" fill="#fe9d2b"/></clipPath></defs><g transform="translate(0 0)"><g transform="translate(0 0)" clip-path="url(#a)"><path d="M76.127,120.726c-20.032,0-38.507-8.285-50.942-22.79L2.822,107.173a2.042,2.042,0,0,1-2.493-3L15.121,81.417a56.174,56.174,0,0,1-4.088-21.052C11.034,27.078,40.235,0,76.127,0s65.093,27.078,65.093,60.364-29.2,60.362-65.093,60.362M25.789,93.436a2.037,2.037,0,0,1,1.58.751c11.654,14.27,29.426,22.455,48.757,22.455,33.642,0,61.009-25.246,61.009-56.279S109.768,4.083,76.127,4.083,15.117,29.33,15.117,60.364A52.178,52.178,0,0,0,19.3,80.833a2.04,2.04,0,0,1-.167,1.909l-11.8,18.151,17.675-7.3a2.006,2.006,0,0,1,.78-.155" transform="translate(0 -0.001)" fill="#fe9d2b"/><path d="M24.571,43.688l16.55,26.735L81.3,27.515a6.533,6.533,0,0,0-9.447-9.025l-26.794,27.5L37.89,35.507a6.536,6.536,0,0,0-8.047-2.281l-2.37,1.054a6.532,6.532,0,0,0-2.9,9.408" transform="translate(24.576 17.206)" fill="#fe9d2b"/></g></g></svg>