<svg xmlns="http://www.w3.org/2000/svg" xmlns:xlink="http://www.w3.org/1999/xlink" width="836.592" height="654.383" viewBox="0 0 836.592 654.383"><defs><clipPath id="a"><rect width="836.592" height="654.383" transform="translate(-197 -138)" fill="none"/></clipPath></defs><g transform="translate(197 138)"><g clip-path="url(#a)"><path d="M718.195,438.157c-40.169,0-71.2-11.534-92.6-34.494-10.629-10.46-19.247-24.2-27.58-37.488-12.7-20.251-24.7-39.383-42.948-46.823l-.468-.241c-19.3-12.423-48.491-8.726-79.405-4.811-12.714,1.613-25.857,3.278-38.3,3.726-25.266.976-50.5-.485-63.971-17.817-11.447-14.726-12.2-38.14-2.294-71.575C390.988,143.908,497.468,51.545,577.843,48.919c66.3-6.892,104.5,21.5,141.417,48.947,9.886,7.348,19.226,14.292,29.046,20.509l.241.169c3.8,3,7.862,6.134,12.119,9.418,40.683,31.38,102.166,78.8,114.357,151.245,8.522,38.286.927,77.2-20.866,106.612-20.618,27.823-51.344,44.65-86.539,47.388a272.158,272.158,0,0,1-49.424,4.949M557.486,314.138c19.823,8.207,32.824,28.937,45.4,48.984,8.158,13.009,16.6,26.46,26.828,36.538,28.165,30.217,74.222,39.566,137.013,27.875l.3-.04c33.57-2.572,62.875-18.586,82.514-45.1,20.8-28.073,28.039-65.286,19.847-102.094-11.844-70.372-69.865-115.123-112.227-147.8-4.234-3.267-8.273-6.384-12.056-9.363-9.952-6.309-19.339-13.29-29.27-20.673C679.8,75.68,642.5,47.98,578.234,54.642c-76.974,2.523-182.6,94.318-202.032,175.405l-.04.146c-9.234,31.133-8.8,53.5,1.3,66.491,11.881,15.285,35.473,16.525,59.223,15.6,12.191-.436,25.206-2.087,37.793-3.683,31.856-4.039,61.959-7.854,83.008,5.534" transform="translate(-551.308 -171.216)" fill="#fff"/><path d="M410.194,89.409a49.307,49.307,0,0,1-37.727-16.878L355.9,79.372a1.513,1.513,0,0,1-1.846-2.221L365.014,60.3a41.6,41.6,0,0,1-3.027-15.591C361.986,20.054,383.613,0,410.194,0S458.4,20.054,458.4,44.705s-21.626,44.7-48.207,44.7M372.914,69.2a1.509,1.509,0,0,1,1.17.556c8.63,10.568,21.791,16.63,36.109,16.63,24.915,0,45.183-18.7,45.183-41.68S435.109,3.024,410.194,3.024s-45.183,18.7-45.183,41.681a38.642,38.642,0,0,0,3.1,15.159,1.511,1.511,0,0,1-.124,1.414l-8.737,13.443,13.09-5.407a1.486,1.486,0,0,1,.578-.115" transform="translate(181.191)" fill="#1a5eab"/><path d="M378.132,36.641l12.257,19.8,29.758-31.777a4.838,4.838,0,0,0-7-6.684L393.307,38.346l-5.314-7.765a4.838,4.838,0,0,0-5.958-1.689l-1.755.78a4.838,4.838,0,0,0-2.149,6.968" transform="translate(193.272 8.459)" fill="#1a5eab"/><path d="M37.393,172.016l32.182-7.04-7.542-28.66s-10.258.95-14.881,4.057-12.776,8.011-12.776,8.011Z" transform="translate(17.604 69.808)" fill="#fff"/><path d="M48.384,301.48l33.983-10.744-.355-23.155S71.5,269.911,66.1,273.23s-14.8,8.683-14.8,8.683Z" transform="translate(24.778 137.03)" fill="#fff"/><path d="M150.588,94.488a1.045,1.045,0,0,1,.036-.215,1.247,1.247,0,0,1,.091-.194,1.137,1.137,0,0,1,.113-.181,1.1,1.1,0,0,1,.169-.154.94.94,0,0,1,.115-.1c.02-.012.042-.012.062-.023s.033-.03.056-.039L275.547,37.7a1.091,1.091,0,0,1,.4-.1l24.566-1.353,19.128-.73a1.183,1.183,0,0,1,.977.493,1.126,1.126,0,0,1,.106,1.087c-.115.265-2.853,6.516-7.335,8.69-2.791,1.352-10.161,2.76-14.716,3.54a32.251,32.251,0,0,1,2.586,6.256c1.656,5.466-.588,8.418-2.072,9.69a9.752,9.752,0,0,1-10.146,1.22,6.956,6.956,0,0,1-2.341-1.78c-1.5,1.588-9.21,9.166-19.441,9.166a22.025,22.025,0,0,1-11.752-3.56,1.114,1.114,0,0,1-.445,1.309s-88.935,50.055-89.149,50.055c-.086,0-15.192-26.5-15.192-26.5a.783.783,0,0,1-.027-.077c-.009-.017-.027-.023-.035-.039a.961.961,0,0,1-.035-.156.951.951,0,0,1-.05-.221,1.089,1.089,0,0,1,.011-.21" transform="translate(77.111 18.191)" fill="#fff"/><path d="M151.83,96.25a1.512,1.512,0,0,1-.621-2.891L275.525,37.485a1.528,1.528,0,0,1,.537-.13L300.611,36l19.152-.733a1.512,1.512,0,0,1,1.447,2.111c-.118.269-2.911,6.644-7.52,8.881-4.125,2-18.008,4.1-18.6,4.186a1.512,1.512,0,1,1-.449-2.991c3.888-.582,14.646-2.421,17.726-3.915,2.115-1.027,3.835-3.378,4.895-5.149l-16.514.632-24.244,1.334L152.448,96.117a1.5,1.5,0,0,1-.618.133" transform="translate(76.978 18.062)"/><path d="M231.665,64.587a1.512,1.512,0,0,1-.888-2.737l14.117-10.2a1.66,1.66,0,0,1,.239-.142c3.254-1.541,7.036-3.467,8.345-4.311a4.03,4.03,0,0,0-1.374-2.729,6.1,6.1,0,0,0-4.234-.947l-19.343,5.233a1.512,1.512,0,1,1-.788-2.92l19.432-5.258c.3-.057,4.1-.662,6.818,1.526a7.318,7.318,0,0,1,2.572,5.627c.054,1.072.086,1.666-10.009,6.452l-14,10.116a1.507,1.507,0,0,1-.885.286m21.876-16.706v0Z" transform="translate(116.054 20.72)"/><path d="M245.521,58.865c-3.839,0-5.5-3.1-6.216-4.441a5.183,5.183,0,0,0-.343-.6,1.443,1.443,0,0,1-.184-2.073,1.575,1.575,0,0,1,2.179-.188A4.35,4.35,0,0,1,241.971,53c.965,1.8,2.061,3.844,5.992,2.306,2.454-.962,3.68-2.058,4.435-4a9.6,9.6,0,0,0-1.44-5.345,1.512,1.512,0,0,1,2.477-1.734,12.727,12.727,0,0,1,1.97,7.5,1.521,1.521,0,0,1-.086.4,11.259,11.259,0,0,1-9.8,6.741" transform="translate(122.099 22.317)"/><path d="M247.621,63.548a9.831,9.831,0,0,1-4.235-.93,6.6,6.6,0,0,1-3.972-6.339,1.511,1.511,0,1,1,3.021.1,3.628,3.628,0,0,0,2.261,3.511,7.087,7.087,0,0,0,7.282-.844c1.742-1.494,2.179-3.886,1.261-6.916a28.6,28.6,0,0,0-2.549-6.059,1.512,1.512,0,0,1,2.572-1.589,30.859,30.859,0,0,1,2.871,6.771c1.719,5.673-.634,8.757-2.188,10.089a9.8,9.8,0,0,1-6.324,2.2" transform="translate(122.603 22.413)"/><path d="M233,65.252c-4.6,0-9.7-1.514-14.968-5.746a1.511,1.511,0,1,1,1.892-2.357c6.764,5.431,13.954,6.532,21.374,3.275a29.8,29.8,0,0,0,9.439-6.765,1.512,1.512,0,0,1,2.285,1.981c-.116.135-8.512,9.612-20.02,9.612" transform="translate(111.367 27.212)"/><path d="M161.234,110.677a1.512,1.512,0,0,1-.744-2.829l88.541-49.88a1.512,1.512,0,0,1,1.485,2.634l-88.541,49.88a1.513,1.513,0,0,1-.741.2" transform="translate(81.793 29.586)"/><path d="M194.3,105.72,178.1,69.742,139.278,84.113c-15.738,5.826-24.561,19.644-19.7,30.867s20.153,10.688,35.893,4.861Z" transform="translate(60.553 35.715)" fill="#fe9d2b"/><path d="M179.343,62.878s37.6-8.646,43.8-27.723-14.255-13.447-32.6-7.376S161.3,35.973,161.3,35.973s-5.938,2.059-6.674,13.47.845,35.418-8.982,35.013S87.357,41.967,55.925,57.962,20.884,99.084,31.79,120.639s79.434,41.411,97.529,39.142,64.851-17.81,60.964-43.952-10.94-52.951-10.94-52.951" transform="translate(13.424 11.279)"/><path d="M150.415,85.846l-17.6,24.523s-13.263-1.426-24.634-22.986c-.448-.848,41.943-40.884,41.943-40.884l24.535-8.728Z" transform="translate(55.4 19.343)" fill="#fff"/><path d="M133.34,112.392c-.053,0-.107,0-.16-.008-.575-.062-14.2-1.765-25.81-23.784-.72-1.362-.812-1.538,21.094-22.556,10.424-10,21.041-20.031,21.147-20.131a1.512,1.512,0,0,1,.532-.327l24.535-8.726a1.512,1.512,0,0,1,1.857,2.1L152.288,87.04a1.426,1.426,0,0,1-.122.2l-17.6,24.52a1.512,1.512,0,0,1-1.229.631M110.478,88c9.085,16.734,19.272,20.453,22.2,21.2l16.96-23.631,22.493-44.6-20.68,7.355c-15.1,14.262-37.39,35.578-40.977,39.673m40.459-1.644h0Z" transform="translate(54.877 18.832)"/><path d="M164.534,34.585s6.426,37.688,4.13,46.018-4.75,22.685-40.078,2.072Z" transform="translate(65.849 17.711)" fill="#fff"/><path d="M156.916,95.287c-6.768,0-16.2-3.57-28.58-10.795a1.512,1.512,0,1,1,1.524-2.611c15.014,8.76,25.542,12,31.287,9.647,4.11-1.689,5.294-6.077,6.337-9.951l.236-.863c1.808-6.567-2.394-34.972-4.163-45.362a1.511,1.511,0,1,1,2.979-.508c.266,1.551,6.455,38.117,4.1,46.674l-.23.847c-1.1,4.1-2.617,9.7-8.108,11.961a14.055,14.055,0,0,1-5.38.962" transform="translate(65.337 17.199)"/><path d="M111.061,51.634c.03-.77.067-1.5.11-2.191.736-11.41,6.674-13.471,6.674-13.471s10.907-2.12,29.249-8.193,38.793-11.7,32.6,7.376-43.8,27.723-43.8,27.723,1.582,2.663,3.907,7.068a64.379,64.379,0,0,1-28.738-18.312" transform="translate(56.875 11.279)"/><path d="M143.4,53.311c-.384-2.206.416-4.189,1.787-4.426s2.793,1.356,3.177,3.563-.416,4.187-1.787,4.426-2.793-1.356-3.177-3.563" transform="translate(73.389 25.022)"/><path d="M152.142,52.909c-.386-2.206.414-4.189,1.786-4.426s2.793,1.356,3.177,3.563-.414,4.187-1.786,4.426-2.793-1.356-3.177-3.563" transform="translate(77.863 24.816)"/><path d="M146.627,69.115c-5.444,0-7.432-5.888-7.721-9.092a1.512,1.512,0,1,1,3.012-.272c.029.305.7,6.626,5.007,6.331a1.512,1.512,0,1,1,.186,3.018c-.163.011-.324.015-.484.015" transform="translate(71.132 29.895)"/><path d="M149.638,66.4h-.129a1.512,1.512,0,0,1,.023-3.024h.1a5.671,5.671,0,0,0,2.51-.6c-.844-2.005-2.078-5.111-2.852-7.349-.033-.07-1.52-3.732.337-6.637,1.235-1.931,3.537-2.973,6.842-3.1a1.512,1.512,0,0,1,.118,3.021c-2.258.088-3.742.664-4.412,1.71-.984,1.538-.071,3.907-.06,3.931.95,2.728,2.584,6.77,3.305,8.389a1.51,1.51,0,0,1-.443,1.8,8.644,8.644,0,0,1-5.341,1.854" transform="translate(75.802 23.398)" fill="#1c1c1c"/><path d="M128.051,61.845a1.513,1.513,0,0,1-.6-2.9c26.828-11.486,33.328-21.08,34.062-27.108a10.817,10.817,0,0,0-3.9-9.343,1.511,1.511,0,1,1,1.819-2.413c.245.184,5.992,4.61,5.081,12.121-1.2,9.915-13.272,19.848-35.872,29.524a1.507,1.507,0,0,1-.6.122" transform="translate(64.801 10.125)" fill="#fff"/><path d="M165.467,64.645s9.789,16.367-3.694,22.9-40.434-3.768-56.607-11.424c-35-16.565-62.517-.851-61.767-1.8,8.784-11.088,38.683-34.851,75.179-14.545s32.61-5.837,32.61-5.837,6.673,10.207,14.279,10.7" transform="translate(22.217 26.55)"/><path d="M154.916,87.7a15.991,15.991,0,0,1-2.927-.286c-6.96-1.311-18.322-7.131-31.478-13.872C96.375,61.173,66.347,45.781,50.792,51.926c-18.52,7.32-17.035,30.827-17.019,31.063a1.512,1.512,0,0,1-3.015.224c-.02-.26-1.684-25.955,18.923-34.1C66.5,42.469,97.212,58.2,121.89,70.847c12.947,6.634,24.127,12.361,30.656,13.591,3.383.638,6.039-.014,8.143-1.981,7.7-7.2,5.223-28.9,5.2-29.119a1.512,1.512,0,0,1,3-.358c.113.953,2.687,23.441-6.13,31.685a11.1,11.1,0,0,1-7.842,3.032" transform="translate(15.731 24.345)" fill="#fff"/><path d="M137.612,54.409A9.7,9.7,0,1,0,131.1,66.481Z" transform="translate(60.743 24.316)" fill="#fff"/><path d="M128.835,68.914A11.214,11.214,0,1,1,139.574,54.49a1.512,1.512,0,1,1-2.9.865,8.19,8.19,0,1,0-5.5,10.192,1.512,1.512,0,0,1,.865,2.9,11.163,11.163,0,0,1-3.2.47" transform="translate(60.231 23.803)"/><path d="M403.588,381.006H193.3a1.511,1.511,0,0,1-1.512-1.512V358.878a1.511,1.511,0,0,1,.47-1.1l49.481-47.008a1.518,1.518,0,0,1,.863-.405l173.5-20.46V210.12L207.718,184.174,241.761,309a1.512,1.512,0,0,1-2.918.8l-34.636-127a1.512,1.512,0,0,1,1.645-1.9L417.8,207.285a1.512,1.512,0,0,1,1.325,1.5v82.469a1.512,1.512,0,0,1-1.334,1.5L243.452,313.312l-48.644,46.215v18.455H403.588a1.512,1.512,0,1,1,0,3.024" transform="translate(98.213 92.631)" fill="#1a5eab"/><path d="M407.568,217.175H211.292a1.512,1.512,0,0,1,0-3.024H407.568a1.512,1.512,0,0,1,0,3.024" transform="translate(107.43 109.668)" fill="#1a5eab"/><path d="M404.208,241.172H217.853a1.512,1.512,0,0,1,0-3.024H404.208a1.512,1.512,0,0,1,0,3.024" transform="translate(110.79 121.957)" fill="#1a5eab"/><path d="M324.46,285.078a1.512,1.512,0,0,1-1.512-1.512V198.21a1.512,1.512,0,1,1,3.024,0v85.355a1.512,1.512,0,0,1-1.512,1.512" transform="translate(165.384 100.73)" fill="#1a5eab"/><path d="M308.437,289.524a1.511,1.511,0,0,1-1.508-1.43L301.9,195.729a1.511,1.511,0,1,1,3.018-.165l5.031,92.366a1.513,1.513,0,0,1-1.426,1.592h-.085" transform="translate(154.603 99.417)" fill="#1a5eab"/><path d="M292.416,293.971a1.513,1.513,0,0,1-1.5-1.359l-10.06-99.376a1.512,1.512,0,1,1,3.009-.3l10.06,99.374a1.512,1.512,0,0,1-1.352,1.657,1.35,1.35,0,0,1-.154.008" transform="translate(143.822 98.105)" fill="#1a5eab"/><path d="M276.395,298.417a1.511,1.511,0,0,1-1.5-1.3L259.807,190.735a1.513,1.513,0,0,1,3-.428l15.091,106.384a1.513,1.513,0,0,1-1.284,1.712,1.731,1.731,0,0,1-.215.014" transform="translate(133.041 96.792)" fill="#1a5eab"/><path d="M260.372,302.864a1.51,1.51,0,0,1-1.486-1.247L238.764,188.222a1.512,1.512,0,0,1,2.977-.529l20.12,113.394a1.512,1.512,0,0,1-1.223,1.754,1.607,1.607,0,0,1-.266.023" transform="translate(122.26 95.48)" fill="#1a5eab"/><path d="M244.352,307.31a1.513,1.513,0,0,1-1.479-1.2L217.721,185.7a1.512,1.512,0,1,1,2.959-.62l25.152,120.4a1.511,1.511,0,0,1-1.17,1.79,1.551,1.551,0,0,1-.31.032" transform="translate(111.48 94.167)" fill="#1a5eab"/><path d="M302.224,336.355a15.944,15.944,0,1,0,15.944-15.944,15.944,15.944,0,0,0-15.944,15.944" transform="translate(154.771 164.085)" fill="#1a5eab"/><path d="M188.419,336.355a15.944,15.944,0,1,0,15.944-15.944,15.944,15.944,0,0,0-15.944,15.944" transform="translate(96.491 164.085)" fill="#1a5eab"/><path d="M313.28,343.2a1.511,1.511,0,0,1-1.512-1.512V313.651a1.512,1.512,0,1,1,3.024,0V341.69a1.511,1.511,0,0,1-1.512,1.512" transform="translate(159.658 159.848)" fill="#1a5eab"/><path d="M199.476,343.2a1.51,1.51,0,0,1-1.512-1.512V313.651a1.512,1.512,0,0,1,3.024,0V341.69a1.512,1.512,0,0,1-1.512,1.512" transform="translate(101.379 159.848)" fill="#1a5eab"/><path d="M212.788,192.558a1.516,1.516,0,0,1-1.409-.959l-5.118-13-27.43-10.892a1.511,1.511,0,1,1,1.114-2.81l28.039,11.134a1.515,1.515,0,0,1,.85.85l5.362,13.607a1.515,1.515,0,0,1-.856,1.961,1.484,1.484,0,0,1-.552.106" transform="translate(91.091 84.392)" fill="#1a5eab"/><path d="M177.172,173.185l-70.94,113.667c-14.8,23.711-51.1,16.281-55.391-11.338L33.529,164.126l40.118-7.765,11.646,60.822,23.292-56.938S128,127.893,177.172,173.185" transform="translate(17.17 76.329)"/><path d="M162.709,166.127,193.625,284.64a31.588,31.588,0,0,1-22.331,38.469l-99.17,26.776L61.771,325.3l81.527-44-36.235-78.938S120,149.3,162.709,166.127" transform="translate(31.633 83.387)"/><path d="M82.691,156.2,75.973,127.28,4.748,143.828c-5.982,1.39-4.468,12.4,2.126,16.44l41.317,7.886s10.591-17.689,34.5-11.955" transform="translate(0.511 65.181)" fill="#fff"/><path d="M82.09,152.894l-4.8-20.655L6.066,148.786c-5.982,1.39-5.54,7.781.7,10.313l40.438,5.631s11.684-14.509,34.883-11.835" transform="translate(0.934 67.72)" fill="#1a5eab"/><path d="M48.7,170.178a1.49,1.49,0,0,1-.281-.027L7.1,162.265a1.511,1.511,0,0,1-.507-.2A14.439,14.439,0,0,1,.126,148.435a6.353,6.353,0,0,1,4.789-5.569l71.226-16.547a1.514,1.514,0,0,1,1.815,1.131l6.718,28.919a1.512,1.512,0,0,1-1.825,1.813C60.361,152.789,50.411,168.761,50,169.445a1.523,1.523,0,0,1-1.3.733M7.949,159.348l40.066,7.647c2.558-3.505,13.2-15.93,33.176-12.256l-5.84-25.133L5.6,145.813a3.445,3.445,0,0,0-2.487,3.106,11.406,11.406,0,0,0,4.837,10.429" transform="translate(0 64.669)"/><path d="M85.692,275.847,61.751,258.291,18.51,317.259c-3.631,4.951,4.689,12.313,12.325,11.082L77.18,302.33s-13.359-15.251,8.512-26.483" transform="translate(9.03 132.273)" fill="#fff"/><path d="M83.1,273.84,66,261.3l-43.24,58.968c-3.632,4.952.868,9.511,7.254,7.364l42.658-26.8S63.761,286.93,83.1,273.84" transform="translate(10.99 133.813)" fill="#1a5eab"/><path d="M29.62,330.5A14.551,14.551,0,0,1,17.8,324.219a6.347,6.347,0,0,1,0-7.343l43.24-58.968a1.514,1.514,0,0,1,2.114-.327L87.1,275.139a1.513,1.513,0,0,1-.2,2.565c-6.749,3.466-10.626,7.616-11.527,12.339-1.216,6.374,3.414,11.749,3.461,11.8a1.511,1.511,0,0,1-.4,2.315L32.088,330.17a1.476,1.476,0,0,1-.5.174,12.207,12.207,0,0,1-1.969.157m32.967-69.586L20.242,318.663a3.445,3.445,0,0,0,.136,3.977A11.406,11.406,0,0,0,30.853,327.4l44.6-25.031c-1.571-2.341-4.139-7.214-3.056-12.891.981-5.134,4.677-9.6,11-13.3Z" transform="translate(8.518 131.76)"/><path d="M57.523,290.41a1.512,1.512,0,0,1-.265-3l16.071-2.867a1.512,1.512,0,0,1,.532,2.977l-16.071,2.865a1.478,1.478,0,0,1-.268.024" transform="translate(28.685 145.704)"/><path d="M36.918,164.326a1.51,1.51,0,0,1-1.494-1.294l-1.515-10.417a1.511,1.511,0,1,1,2.991-.435L38.415,162.6a1.512,1.512,0,0,1-1.278,1.715,1.545,1.545,0,0,1-.219.015" transform="translate(17.356 77.269)"/><path d="M58.873,161.088a1.512,1.512,0,0,1-1.461-1.127l-3.381-12.814a1.511,1.511,0,1,1,2.923-.771l3.383,12.814a1.513,1.513,0,0,1-1.077,1.848,1.545,1.545,0,0,1-.387.05" transform="translate(27.644 74.384)"/><path d="M157.109,220.784s31.75-66.081,23.92-94.041a208.418,208.418,0,0,0-19.958-47.764l-41.338-5.9,2.791,84.559-40.331,39.54s34.686-10.022,74.916,23.607" transform="translate(42.092 37.424)" fill="#fe9d2b"/><path d="M216.085,196.765s.048-3.8-3.618-4.511c-4.223-.82-8.537,4.842-10.857,8-2.714,3.691-10.255,8-19.3,1.231-4.182-3.129-67.236-77.895-67.236-77.895l23.99-18.059s49.977,84.212,56.483,79.55a28.867,28.867,0,0,1,28.564-2.664c8.986,4.511,3.531,15.992,3.531,15.992Z" transform="translate(58.929 54.042)" fill="#fff"/><path d="M119.869,151.1l31.577-18.632-16.471-39.22c-5.781-16.493-17.237-26.584-25.589-22.538S98.948,91.41,104.727,107.9Z" transform="translate(51.957 35.757)" fill="#fe9d2b"/><path d="M218.054,196.659a1.511,1.511,0,0,1-1.367-2.158c.2-.416,4.7-10.208-2.841-13.995a27.345,27.345,0,0,0-27.006,2.543,2.785,2.785,0,0,1-2.277.423c-1.754-.36-6.411-1.319-29.218-35.655-11.12-16.742-21.236-33.467-21.336-33.634a1.511,1.511,0,1,1,2.587-1.564c25.586,42.35,44.713,67.667,48.582,67.9,11.605-8.242,24.706-5.388,30.023-2.717,8.155,4.092,6.325,13.559,4.219,17.993a1.509,1.509,0,0,1-1.365.862" transform="translate(68.514 57.299)"/><path d="M190.477,199.247a17.578,17.578,0,0,1-10.471-3.857c-4.207-3.147-55.974-65.975-61.863-73.127a1.513,1.513,0,0,1,2.336-1.923c23.032,27.982,58.376,70.414,61.337,72.628,3.451,2.58,6.894,3.637,10.223,3.141a10.826,10.826,0,0,0,6.956-4.055c2.3-3.119,7.074-9.628,12.363-8.584a6,6,0,0,1,4.845,6.014,1.538,1.538,0,0,1-1.532,1.492,1.512,1.512,0,0,1-1.492-1.521,3.017,3.017,0,0,0-2.4-3.017c-3.434-.655-7.73,5.2-9.352,7.408a13.806,13.806,0,0,1-10.954,5.4" transform="translate(60.325 61.345)"/><path d="M140.071,122.642a1.511,1.511,0,0,1-1.309-.755l-16.493-28.45a1.512,1.512,0,1,1,2.616-1.517l16.493,28.452a1.511,1.511,0,0,1-1.306,2.27" transform="translate(62.509 46.687)" fill="#fff"/><path d="M154.862,135.2c-.045,0-.092,0-.138-.006a1.512,1.512,0,0,1-1.371-1.639c2.123-23.893-12.788-46.075-12.938-46.3a1.513,1.513,0,0,1,2.5-1.7c.638.939,15.671,23.276,13.45,48.268a1.512,1.512,0,0,1-1.5,1.379" transform="translate(71.773 43.475)" fill="#fff"/><path d="M101.668,227.491a1.511,1.511,0,0,1-1.328-2.232l21.443-39.585a1.512,1.512,0,0,1,2.658,1.44L103,226.7a1.509,1.509,0,0,1-1.331.792" transform="translate(51.291 94.679)" fill="#fff"/><path d="M333.86,39.438a12.824,12.824,0,0,1-2.332-.212l-.047.088-1.2-.37-11.128-3.615L325.913,24l.121.071a14.048,14.048,0,0,1,14.675-4.459,9.062,9.062,0,0,1,5.929,5.373,9.076,9.076,0,0,1-.918,7.96,14.029,14.029,0,0,1-11.859,6.494m-3.082-3.513.405.113A10.982,10.982,0,0,0,343.12,31.4l0,0a6.121,6.121,0,0,0,.685-5.347,6.11,6.11,0,0,0-4.031-3.561,11,11,0,0,0-12.045,4.388l-.2.311-3.842,6.436Z" transform="translate(163.44 9.739)" fill="#212121"/><path d="M324.982,40.749,315.8,31.771l.051-.094a14.067,14.067,0,0,1-1.095-15.57l0,0a8.772,8.772,0,0,1,14.149-1.74A14.047,14.047,0,0,1,331.777,29.4l.116.068-.791,1.32Zm-5.764-9.868,5.17,5.058,4.1-6.712a11,11,0,0,0-1.7-12.7,5.763,5.763,0,0,0-9.458,1.163,11.016,11.016,0,0,0,1.438,12.733Z" transform="translate(160.243 5.911)" fill="#212121"/><path d="M365.781,77.114l-77.13-46.67L299.1,13.184l77.13,46.67ZM292.8,29.423l71.955,43.54,7.314-12.086-71.955-43.54Z" transform="translate(147.82 6.752)" fill="#212121"/><path d="M344.028,116.444,271.74,72.7,301.3,23.856,373.585,67.6ZM275.892,71.682l67.113,40.609,26.426-43.674-67.11-40.609Z" transform="translate(139.16 12.217)" fill="#212121"/><rect width="6.891" height="16.552" transform="matrix(0.518, -0.856, 0.856, 0.518, 471.413, 50.536)" fill="#fe9d2b"/><rect width="43.88" height="15.641" transform="matrix(0.518, -0.856, 0.856, 0.518, 443.774, 97.088)" fill="#fe9d2b"/><path d="M263.693,219.783l-.709-2.94c.962-.236,23.6-6.044,28.3-32.477a31.888,31.888,0,0,0-.523-14.244,64.978,64.978,0,0,1-7.618,2.348c-20.1,4.855-27.529-2.7-29.8-6.172-2.466-3.78-2.616-8.3-.37-11.241,5.454-7.149,14.993-9.126,24.3-5.035A29.557,29.557,0,0,1,292.6,166.108c24.9-10.857,44.893-38.867,36.233-81.385l2.964-.6c9.035,44.362-12.045,73.585-38.209,84.859a34.846,34.846,0,0,1,.668,15.918,43.89,43.89,0,0,1-30.567,34.886m4.06-68.827a15.2,15.2,0,0,0-12.372,5.935c-1.447,1.9-1.244,5.087.5,7.756,1.492,2.291,7.824,9.413,26.551,4.884a61.379,61.379,0,0,0,7.361-2.279,26.494,26.494,0,0,0-13.73-14.462,20.7,20.7,0,0,0-8.309-1.834" transform="translate(128.738 43.078)" fill="#1d1d1b"/></g></g></svg>