<svg xmlns="http://www.w3.org/2000/svg" xmlns:xlink="http://www.w3.org/1999/xlink" width="97.699" height="132.713" viewBox="0 0 97.699 132.713"><defs><clipPath id="a"><rect width="97.699" height="132.713" fill="none"/></clipPath></defs><g transform="translate(0 -21)"><g transform="translate(0 21)" clip-path="url(#a)"><path d="M24.93,278.962a12.019,12.019,0,0,1-3.627,8.815,11.988,11.988,0,0,1-8.818,3.636,12.035,12.035,0,0,1-8.839-3.646,12.537,12.537,0,0,1,0-17.677,12.037,12.037,0,0,1,8.839-3.646q5.549,0,9.67,4.9l-3.963,2.43a7.611,7.611,0,0,0-11.336-.47,7.917,7.917,0,0,0,5.628,13.549,7.919,7.919,0,0,0,7.571-5.628H10.542v-4.558H24.93Z" transform="translate(0 -189.262)" fill="#fe9d2b"/><path d="M112.763,269.313l-2.14,4.3a7.721,7.721,0,0,0-13.436,5.3v12.493H92.629V266.443h4.558v2.893a11.923,11.923,0,0,1,7.886-2.893,11.628,11.628,0,0,1,7.69,2.87" transform="translate(-65.797 -189.262)" fill="#fe9d2b"/><path d="M173.856,269a2.411,2.411,0,0,1-.738,1.788,2.488,2.488,0,0,1-1.817.729,2.551,2.551,0,0,1-1.837-.729A2.377,2.377,0,0,1,168.7,269a2.442,2.442,0,0,1,.759-1.809,2.521,2.521,0,0,1,1.837-.748A2.537,2.537,0,0,1,173.856,269m-.317,22.413h-4.558V272.784h4.558Z" transform="translate(-119.836 -189.262)" fill="#fe9d2b"/><path d="M207.9,282.1q-.2,1.99-.753,4.737a7.565,7.565,0,0,1-2.735,3.344,7.389,7.389,0,0,1-9.334-.954,7.248,7.248,0,0,1-2.16-5.288V266.443h4.558v3.885h10.225v4.558H197.481v9.1a2.777,2.777,0,0,0,.832,2.035,2.74,2.74,0,0,0,2.021.838q2.813,0,2.814-4.756Z" transform="translate(-137.039 -189.262)" fill="#fe9d2b"/><path d="M276.14,278.928a12.415,12.415,0,1,1-3.626-8.838,12.07,12.07,0,0,1,3.626,8.838m-4.557.02a7.7,7.7,0,0,0-2.3-5.622A7.563,7.563,0,0,0,263.7,271a7.955,7.955,0,1,0,7.888,7.947" transform="translate(-178.442 -189.262)" fill="#fe9d2b"/><path d="M39.831,359.816,30.818,388.21H26.5l-5.714-18.357L15.058,388.21H10.671L1.837,359.816H7.266l5.615,18.2,5.632-18.2h4.552l5.655,18.321,5.721-18.321Z" transform="translate(-1.305 -255.587)" fill="#fff"/><path d="M168.814,376.627H146.008a8.669,8.669,0,0,0,3.245,4.642,8.9,8.9,0,0,0,5.409,1.758,8.646,8.646,0,0,0,6.445-3.02l4.552,2.644q-4.688,5.558-11,5.558a14.22,14.22,0,1,1,14.152-14.158Zm-5.544-5.184a8.864,8.864,0,0,0-3.245-4.652A8.716,8.716,0,0,0,154.662,365a9.069,9.069,0,0,0-8.654,6.445Z" transform="translate(-99.776 -255.587)" fill="#fff"/><path d="M270.366,379.769a8.226,8.226,0,0,1-2.457,6,8.084,8.084,0,0,1-5.971,2.483L245.8,388.3V359.816h16.224a8,8,0,0,1,5.9,2.46,8.433,8.433,0,0,1,.135,11.715,8.032,8.032,0,0,1,2.3,5.778m-5.184-11.548a3.146,3.146,0,0,0-.924-2.268,2.99,2.99,0,0,0-2.231-.954H250.986v6.4h11.041a3.025,3.025,0,0,0,2.231-.93,3.073,3.073,0,0,0,.924-2.248m0,11.583a3.145,3.145,0,0,0-.924-2.268,2.99,2.99,0,0,0-2.231-.953H250.986v6.489h10.952a3.113,3.113,0,0,0,2.3-.953,3.16,3.16,0,0,0,.947-2.315" transform="translate(-174.601 -255.587)" fill="#fff"/><path d="M32.19,29.148c0-11.336,13.948-20.911,30.453-20.911,8.561,0,16.516,2.444,22.4,6.88C90.24,19.028,93.1,24.011,93.1,29.146a14.042,14.042,0,0,1-.419,3.364,33.557,33.557,0,0,1,7.48,3.787,22.459,22.459,0,0,0,1.175-7.151C101.337,13.051,84.013,0,62.643,0S23.954,13.051,23.953,29.148c0,7.368,3.637,14.093,9.625,19.226l-9,17.991c-.405.813-.075,1.143.737.738L47.562,56l.011,0c0-.187-.017-.374-.017-.562a20.68,20.68,0,0,1,1.474-7.675c-9.89-3.5-16.84-10.618-16.84-18.614" transform="translate(-17.014)" fill="#fff"/><path d="M169.591,155.066c4.161-3.567,6.69-8.24,6.69-13.363,0-11.187-12.043-20.258-26.894-20.258S122.495,130.517,122.5,141.7s12.039,20.258,26.891,20.258a34.49,34.49,0,0,0,10.483-1.6l15.012,7.495c.81.406,1.142.074.737-.737Z" transform="translate(-87.012 -86.266)" fill="#fff"/></g></g></svg>