<svg xmlns="http://www.w3.org/2000/svg" xmlns:xlink="http://www.w3.org/1999/xlink" width="210.119" height="194.768" viewBox="0 0 210.119 194.768"><defs><clipPath id="a"><rect width="117.385" height="174.272" fill="#fe9d2b"/></clipPath></defs><g transform="translate(210.119 97.451) rotate(124)"><g transform="translate(0 0)" clip-path="url(#a)"><path d="M9.464,0l3.092,1.117C-3.154,44.574,1.137,76.8,24.639,91.856A52.463,52.463,0,0,0,41.48,98.493a69.041,69.041,0,0,1,4.285-13.087c8.8-19.2,22.963-30.387,37.955-30.013,9.192.249,16.97,5.07,19.813,12.282,2.784,7.061.324,15.107-6.745,22.074-10.836,10.677-32.669,16.393-52.824,12.858-2.273,12.206-2.274,27.3,3.829,40.019,5.7,11.89,15.845,19.746,30.148,23.349l-.8,3.188c-15.3-3.854-26.165-12.3-32.31-25.116-6.431-13.41-6.444-29.274-4.064-42.085a56.189,56.189,0,0,1-17.9-7.339C-10.769,73.075.033,26.089,9.464,0M57.255,100.183c14.036,0,28.26-3.943,37.224-12.776,6.176-6.085,8.305-12.665,5.993-18.526C98.115,62.9,91.5,58.893,83.63,58.679c-13.569-.368-26.648,10.134-34.876,28.1A65.977,65.977,0,0,0,44.69,99.122a74.542,74.542,0,0,0,12.565,1.061" transform="translate(12.732 5.109)" fill="#fe9d2b"/><path d="M25.847,0l2.371,38.332L0,35.638ZM24.7,34.693,23.13,9.345,6.039,32.911Z" transform="translate(0 0)" fill="#fe9d2b"/></g></g></svg>