<svg xmlns="http://www.w3.org/2000/svg" xmlns:xlink="http://www.w3.org/1999/xlink" width="210.084" height="196.115" viewBox="0 0 210.084 196.115"><defs><clipPath id="a"><rect width="117.385" height="174.271" fill="#fe9d2b"/></clipPath></defs><g transform="matrix(-0.574, -0.819, 0.819, -0.574, 67.33, 196.115)"><g transform="translate(0 0)" clip-path="url(#a)"><path d="M9.464,169.163l3.092-1.117C-3.154,124.589,1.137,92.365,24.639,77.307A52.463,52.463,0,0,1,41.48,70.67a69.041,69.041,0,0,0,4.285,13.087c8.8,19.2,22.963,30.387,37.955,30.013,9.192-.249,16.97-5.07,19.813-12.282,2.784-7.061.324-15.107-6.745-22.074C85.952,68.738,64.118,63.022,43.963,66.556c-2.273-12.206-2.274-27.3,3.829-40.019,5.7-11.89,15.845-19.746,30.148-23.349L77.137,0c-15.3,3.854-26.165,12.3-32.31,25.116C38.4,38.526,38.383,54.389,40.763,67.2a56.189,56.189,0,0,0-17.9,7.339C-10.769,96.088.033,143.074,9.464,169.163M57.255,68.98c14.036,0,28.26,3.943,37.224,12.776,6.176,6.085,8.305,12.665,5.993,18.526-2.358,5.984-8.968,9.987-16.843,10.2-13.569.368-26.648-10.134-34.876-28.1A65.977,65.977,0,0,1,44.69,70.041,74.542,74.542,0,0,1,57.255,68.98" transform="translate(12.732 0)" fill="#fe9d2b"/><path d="M25.847,38.332,28.218,0,0,2.695ZM24.7,3.639,23.13,28.988,6.039,5.422Z" transform="translate(0 135.939)" fill="#fe9d2b"/></g></g></svg>