<svg xmlns="http://www.w3.org/2000/svg" width="174.719" height="173.521" viewBox="0 0 174.719 173.521"><path d="M41.433,61.857c0-24.057,29.6-44.376,64.626-44.376,18.168,0,35.049,5.187,47.547,14.6,11.018,8.3,17.09,18.875,17.085,29.771a29.8,29.8,0,0,1-.89,7.138,71.216,71.216,0,0,1,15.875,8.036,47.663,47.663,0,0,0,2.493-15.175C188.174,27.7,151.411,0,106.059,0s-82.1,27.7-82.106,61.857c0,15.637,7.719,29.907,20.426,40.8l-19.093,38.18c-.86,1.724-.159,2.426,1.564,1.566l47.2-23.567a.189.189,0,0,1,.023,0c-.006-.4-.035-.794-.035-1.193A43.886,43.886,0,0,1,77.17,101.36c-20.988-7.428-35.737-22.533-35.737-39.5" transform="translate(-23.953)" fill="#1a5eab"/><path d="M222.44,192.794c8.829-7.569,14.2-17.486,14.2-28.358,0-23.74-25.556-42.99-57.074-42.99s-57.07,19.25-57.067,42.99,25.55,42.991,57.067,42.991a73.193,73.193,0,0,0,22.247-3.39l31.859,15.9c1.718.861,2.423.157,1.563-1.564Z" transform="translate(-61.918 -46.789)" fill="#1a5eab"/></svg>